<?xml version="1.0" encoding="UTF-8" standalone="no"?>
<!-- Created with Inkscape (http://www.inkscape.org/) -->
<svg xmlns:dc="http://purl.org/dc/elements/1.1/" xmlns:cc="http://creativecommons.org/ns#" xmlns:rdf="http://www.w3.org/1999/02/22-rdf-syntax-ns#" xmlns:svg="http://www.w3.org/2000/svg" xmlns="http://www.w3.org/2000/svg" xmlns:sodipodi="http://sodipodi.sourceforge.net/DTD/sodipodi-0.dtd" xmlns:inkscape="http://www.inkscape.org/namespaces/inkscape" id="svg2" version="1.1" inkscape:version="0.48.5 r10040" width="450" height="301" sodipodi:docname="огурец.svg" inkscape:export-filename="C:\Users\dendav\Desktop\огурец.png" inkscape:export-xdpi="568.62946" inkscape:export-ydpi="568.62946">
  <metadata id="metadata8">
    <rdf:RDF>
      <cc:Work rdf:about="">
        <dc:format>image/svg+xml</dc:format>
        <dc:type rdf:resource="http://purl.org/dc/dcmitype/StillImage"/>
        <dc:title/>
      </cc:Work>
    </rdf:RDF>
  </metadata>
  <defs id="defs6">
    <filter inkscape:collect="always" id="filter3877" x="-0.014809873" width="1.0296197" y="-0.20090498" height="1.40181">
      <feGaussianBlur inkscape:collect="always" stdDeviation="1.462041" id="feGaussianBlur3879"/>
    </filter>
    <filter inkscape:collect="always" id="filter3917" x="-0.022040178" width="1.0440804" y="-0.33764978" height="1.6752996">
      <feGaussianBlur inkscape:collect="always" stdDeviation="2.1851355" id="feGaussianBlur3919"/>
    </filter>
    <filter inkscape:collect="always" id="filter3925" x="-0.060849241" width="1.1216985" y="-0.59138656" height="2.1827731">
      <feGaussianBlur inkscape:collect="always" stdDeviation="6.0620254" id="feGaussianBlur3927"/>
    </filter>
    <filter inkscape:collect="always" id="filter3941" x="-0.18577319" width="1.3715464" y="-0.12822305" height="1.2564461">
      <feGaussianBlur inkscape:collect="always" stdDeviation="4.2322888" id="feGaussianBlur3943"/>
    </filter>
    <filter inkscape:collect="always" id="filter3949" x="-0.042785647" width="1.0855713" y="-0.45128161" height="1.9025632">
      <feGaussianBlur inkscape:collect="always" stdDeviation="4.5271544" id="feGaussianBlur3951"/>
    </filter>
    <filter color-interpolation-filters="sRGB" inkscape:collect="always" id="filter4076-91" x="-0.24462475" width="1.4892495" y="-0.41586208" height="1.831724">
      <feGaussianBlur inkscape:collect="always" stdDeviation="0.27625018" id="feGaussianBlur4078-35"/>
    </filter>
    <filter color-interpolation-filters="sRGB" inkscape:collect="always" id="filter4024-76" x="-0.084402904" width="1.1688058" y="-0.10346163" height="1.2069232">
      <feGaussianBlur inkscape:collect="always" stdDeviation="0.42611248" id="feGaussianBlur4026-3"/>
    </filter>
    <filter inkscape:collect="always" id="filter4333" x="-0.17895093" width="1.3579019" y="-0.24286198" height="1.485724">
      <feGaussianBlur inkscape:collect="always" stdDeviation="0.45172158" id="feGaussianBlur4335"/>
    </filter>
    <filter color-interpolation-filters="sRGB" inkscape:collect="always" id="filter4076-91-2" x="-0.24462475" width="1.4892495" y="-0.41586208" height="1.831724">
      <feGaussianBlur inkscape:collect="always" stdDeviation="0.27625018" id="feGaussianBlur4078-35-0"/>
    </filter>
    <filter color-interpolation-filters="sRGB" inkscape:collect="always" id="filter4333-9" x="-0.17895094" width="1.3579019" y="-0.24286199" height="1.485724">
      <feGaussianBlur inkscape:collect="always" stdDeviation="0.45172158" id="feGaussianBlur4335-7"/>
    </filter>
    <filter color-interpolation-filters="sRGB" inkscape:collect="always" id="filter4024-76-3" x="-0.084402904" width="1.1688058" y="-0.10346163" height="1.2069232">
      <feGaussianBlur inkscape:collect="always" stdDeviation="0.42611248" id="feGaussianBlur4026-3-7"/>
    </filter>
    <filter color-interpolation-filters="sRGB" inkscape:collect="always" id="filter4076-91-1" x="-0.24462475" width="1.4892495" y="-0.41586208" height="1.831724">
      <feGaussianBlur inkscape:collect="always" stdDeviation="0.27625018" id="feGaussianBlur4078-35-6"/>
    </filter>
    <filter color-interpolation-filters="sRGB" inkscape:collect="always" id="filter4333-5" x="-0.17895094" width="1.3579019" y="-0.24286199" height="1.485724">
      <feGaussianBlur inkscape:collect="always" stdDeviation="0.45172158" id="feGaussianBlur4335-75"/>
    </filter>
    <filter color-interpolation-filters="sRGB" inkscape:collect="always" id="filter4024-76-4" x="-0.084402904" width="1.1688058" y="-0.10346163" height="1.2069232">
      <feGaussianBlur inkscape:collect="always" stdDeviation="0.42611248" id="feGaussianBlur4026-3-1"/>
    </filter>
    <filter color-interpolation-filters="sRGB" inkscape:collect="always" id="filter4076-91-4" x="-0.24462475" width="1.4892495" y="-0.41586208" height="1.831724">
      <feGaussianBlur inkscape:collect="always" stdDeviation="0.27625018" id="feGaussianBlur4078-35-60"/>
    </filter>
    <filter color-interpolation-filters="sRGB" inkscape:collect="always" id="filter4333-7" x="-0.17895094" width="1.3579019" y="-0.24286199" height="1.485724">
      <feGaussianBlur inkscape:collect="always" stdDeviation="0.45172158" id="feGaussianBlur4335-1"/>
    </filter>
    <filter color-interpolation-filters="sRGB" inkscape:collect="always" id="filter4024-76-7" x="-0.084402904" width="1.1688058" y="-0.10346163" height="1.2069232">
      <feGaussianBlur inkscape:collect="always" stdDeviation="0.42611248" id="feGaussianBlur4026-3-77"/>
    </filter>
    <filter color-interpolation-filters="sRGB" inkscape:collect="always" id="filter4076-91-5" x="-0.24462475" width="1.4892495" y="-0.41586208" height="1.831724">
      <feGaussianBlur inkscape:collect="always" stdDeviation="0.27625018" id="feGaussianBlur4078-35-9"/>
    </filter>
    <filter color-interpolation-filters="sRGB" inkscape:collect="always" id="filter4333-98" x="-0.17895094" width="1.3579019" y="-0.24286199" height="1.485724">
      <feGaussianBlur inkscape:collect="always" stdDeviation="0.45172158" id="feGaussianBlur4335-18"/>
    </filter>
    <filter color-interpolation-filters="sRGB" inkscape:collect="always" id="filter4024-76-2" x="-0.084402904" width="1.1688058" y="-0.10346163" height="1.2069232">
      <feGaussianBlur inkscape:collect="always" stdDeviation="0.42611248" id="feGaussianBlur4026-3-6"/>
    </filter>
    <filter color-interpolation-filters="sRGB" inkscape:collect="always" id="filter4076-91-0" x="-0.24462475" width="1.4892495" y="-0.41586208" height="1.831724">
      <feGaussianBlur inkscape:collect="always" stdDeviation="0.27625018" id="feGaussianBlur4078-35-1"/>
    </filter>
    <filter color-interpolation-filters="sRGB" inkscape:collect="always" id="filter4333-2" x="-0.17895094" width="1.3579019" y="-0.24286199" height="1.485724">
      <feGaussianBlur inkscape:collect="always" stdDeviation="0.45172158" id="feGaussianBlur4335-5"/>
    </filter>
    <filter color-interpolation-filters="sRGB" inkscape:collect="always" id="filter4024-76-0" x="-0.084402904" width="1.1688058" y="-0.10346163" height="1.2069232">
      <feGaussianBlur inkscape:collect="always" stdDeviation="0.42611248" id="feGaussianBlur4026-3-9"/>
    </filter>
    <filter color-interpolation-filters="sRGB" inkscape:collect="always" id="filter4076-91-51" x="-0.24462475" width="1.4892495" y="-0.41586208" height="1.831724">
      <feGaussianBlur inkscape:collect="always" stdDeviation="0.27625018" id="feGaussianBlur4078-35-2"/>
    </filter>
    <filter color-interpolation-filters="sRGB" inkscape:collect="always" id="filter4333-0" x="-0.17895094" width="1.3579019" y="-0.24286199" height="1.485724">
      <feGaussianBlur inkscape:collect="always" stdDeviation="0.45172158" id="feGaussianBlur4335-16"/>
    </filter>
    <filter color-interpolation-filters="sRGB" inkscape:collect="always" id="filter4024-76-40" x="-0.084402904" width="1.1688058" y="-0.10346163" height="1.2069232">
      <feGaussianBlur inkscape:collect="always" stdDeviation="0.42611248" id="feGaussianBlur4026-3-61"/>
    </filter>
    <filter color-interpolation-filters="sRGB" inkscape:collect="always" id="filter4076-91-14" x="-0.24462475" width="1.4892495" y="-0.41586208" height="1.831724">
      <feGaussianBlur inkscape:collect="always" stdDeviation="0.27625018" id="feGaussianBlur4078-35-3"/>
    </filter>
    <filter color-interpolation-filters="sRGB" inkscape:collect="always" id="filter4333-988" x="-0.17895094" width="1.3579019" y="-0.24286199" height="1.485724">
      <feGaussianBlur inkscape:collect="always" stdDeviation="0.45172158" id="feGaussianBlur4335-0"/>
    </filter>
    <filter color-interpolation-filters="sRGB" inkscape:collect="always" id="filter4024-76-8" x="-0.084402904" width="1.1688058" y="-0.10346163" height="1.2069232">
      <feGaussianBlur inkscape:collect="always" stdDeviation="0.42611248" id="feGaussianBlur4026-3-778"/>
    </filter>
    <filter color-interpolation-filters="sRGB" inkscape:collect="always" id="filter4076-91-10" x="-0.24462475" width="1.4892495" y="-0.41586208" height="1.831724">
      <feGaussianBlur inkscape:collect="always" stdDeviation="0.27625018" id="feGaussianBlur4078-35-7"/>
    </filter>
    <filter color-interpolation-filters="sRGB" inkscape:collect="always" id="filter4333-3" x="-0.17895094" width="1.3579019" y="-0.24286199" height="1.485724">
      <feGaussianBlur inkscape:collect="always" stdDeviation="0.45172158" id="feGaussianBlur4335-4"/>
    </filter>
    <filter color-interpolation-filters="sRGB" inkscape:collect="always" id="filter4024-76-9" x="-0.084402904" width="1.1688058" y="-0.10346163" height="1.2069232">
      <feGaussianBlur inkscape:collect="always" stdDeviation="0.42611248" id="feGaussianBlur4026-3-65"/>
    </filter>
    <filter color-interpolation-filters="sRGB" inkscape:collect="always" id="filter4076-91-6" x="-0.24462475" width="1.4892495" y="-0.41586208" height="1.831724">
      <feGaussianBlur inkscape:collect="always" stdDeviation="0.27625018" id="feGaussianBlur4078-35-8"/>
    </filter>
    <filter color-interpolation-filters="sRGB" inkscape:collect="always" id="filter4333-34" x="-0.17895094" width="1.3579019" y="-0.24286199" height="1.485724">
      <feGaussianBlur inkscape:collect="always" stdDeviation="0.45172158" id="feGaussianBlur4335-8"/>
    </filter>
    <filter color-interpolation-filters="sRGB" inkscape:collect="always" id="filter4024-76-49" x="-0.084402904" width="1.1688058" y="-0.10346163" height="1.2069232">
      <feGaussianBlur inkscape:collect="always" stdDeviation="0.42611248" id="feGaussianBlur4026-3-92"/>
    </filter>
  </defs>
  <sodipodi:namedview pagecolor="#ffffff" bordercolor="#666666" borderopacity="1" objecttolerance="10" gridtolerance="10" guidetolerance="10" inkscape:pageopacity="0" inkscape:pageshadow="2" inkscape:window-width="1920" inkscape:window-height="1005" id="namedview4" showgrid="false" inkscape:zoom="1.5681063" inkscape:cx="57.689975" inkscape:cy="184.25341" inkscape:window-x="-9" inkscape:window-y="-9" inkscape:window-maximized="1" inkscape:current-layer="svg2"/>
  <path style="fill:#46721b;fill-opacity:1;fill-rule:nonzero;stroke:none" d="M 64.377932,114.53644 C 26.392831,108.4726 21.427851,97.998676 8.7462043,93.221111 c -3.863854,0.367499 -5.529823,4.593821 -5.563164,9.187649 22.0280127,16.37514 43.4423757,33.23577 60.8359727,27.56291 3.225925,-3.30314 -0.315695,-11.2907 0.358919,-15.43523 z" id="path3953" inkscape:connector-curvature="0" sodipodi:nodetypes="ccccc"/>
  <path style="fill:#5c940d;fill-opacity:1;stroke:none" d="M 57.842627,120.7669 C 79.730375,79.138128 134.39437,88.044132 246.66292,101.01711 c 39.01991,4.50887 63.19952,-12.613685 122.94731,2.56172 9.40141,2.38787 33.50554,14.11412 29.32713,36.93787 -10.47098,57.19564 -204.09138,91.16552 -285.12705,62.79833 C 75.426467,189.87846 51.390001,159.37104 57.842627,120.7669 z" id="path2987" inkscape:connector-curvature="0" sodipodi:nodetypes="cssssc"/>
  <path style="opacity:0.43579766;fill:#224702;fill-opacity:1;fill-rule:nonzero;stroke:none;filter:url(#filter3941)" d="m 129.52396,108.90922 c -6.10826,4.33697 -20.72188,1.63837 -25.52378,7.25714 -3.75385,4.3924 -21.960266,4.6626 -25.559576,13.30437 -10.08233,24.20727 1.89667,40.19197 25.374356,50.8518 3.84294,1.74487 12.10583,7.99761 15.37319,7.79946 3.94693,-0.23936 -9.44284,-4.75844 -12.82595,-7.95393 -5.20222,-4.91371 -21.376506,-6.44406 -21.831066,-16.13959 -0.27074,-5.77466 0.99917,-8.94078 3.58971,-11.97201 1.94974,-2.28139 -3.94229,-7.04456 -1.12352,-10.34283 1.51969,-1.77819 5.80902,-2.76976 7.07207,-5.80229 1.83528,-4.40642 -5.961,-6.44875 -1.80743,-11.30886 4.04804,-4.73664 12.457236,-4.33186 16.498566,-9.06067 4.28017,-5.00826 16.18489,-1.27521 20.76343,-6.63259 z" id="path3813-2" inkscape:connector-curvature="0" transform="matrix(1.1256315,0,0,1.1525758,-24.806063,-30.372206)"/>
  <path style="opacity:0.26070042;fill:#224702;fill-opacity:1;fill-rule:nonzero;stroke:none;filter:url(#filter3917)" d="m 288.02018,128.84557 c 11.06503,0.35048 39.20951,1.95471 36.3763,1.8371 -20.53692,-0.85483 -36.93657,-4.1509 -41.26778,-4.47598 -8.21627,-0.61667 -16.23057,2.64251 -24.82083,0.50923 -6.02982,-1.49746 -18.53761,-1.75818 -24.04677,-2.0493 -6.57954,-0.34766 -11.11911,1.92945 -17.03085,1.34907 -6.37185,-0.62553 -20.84823,0.71205 -27.06535,0.94226 -10.9516,0.40553 -7.62402,-1.79586 -18.34979,-1.52108 -2.9662,0.076 -8.88965,1.73167 -11.88285,1.98324 -4.20108,0.35306 -14.33962,-0.88659 -16.2914,-0.73327 -18.53283,1.45572 -17.26211,-2.51838 -33.87287,5.01906 -2.30898,1.04774 -6.96963,0.75008 -9.933886,1.50619 -1.65772,0.42283 -16.78781,1.46913 -12.38098,4.31997 12.14376,7.856 24.509796,-4.2353 35.154666,-5.84908 9.9656,-1.51082 12.69614,-3.11189 29.50757,-0.74057 7.05176,0.9947 12.85707,-2.16725 19.35446,-2.10032 4.60274,0.0474 10.85995,2.44849 15.18735,1.73319 16.1776,-2.67409 28.43282,0.25302 35.67777,-1.59498 8.79817,-2.24418 21.59919,-1.67042 34.0354,0.0807 13.95273,1.96463 9.85933,-2.75074 31.64985,-0.21543 z" id="path3757-1-7-48" inkscape:connector-curvature="0" sodipodi:nodetypes="cssssssssssssssssssc" transform="matrix(1.1256315,0,0,1.1525758,-24.806063,-30.372206)"/>
  <path style="opacity:0.4241245;fill:#224702;fill-opacity:1;fill-rule:nonzero;stroke:none;filter:url(#filter3949)" d="m 300.27488,173.90719 c 11.93605,-0.45665 38.10181,-8.2227 35.15994,-7.41021 -3.84489,1.06189 -7.94731,2.79151 -12.36174,4.3976 -16.27423,5.92096 -36.13273,6.48949 -50.97376,14.12408 -6.07899,3.1272 -23.77616,-1.00594 -29.70583,-0.59918 -7.08173,0.48581 -12.25196,-3.05118 -18.58468,-2.20242 -6.82556,0.91479 -22.2184,1.318 -28.97312,0.91747 -11.89863,-0.70552 -8.04867,2.70587 -19.68812,2.20312 -3.21887,-0.13904 -9.81671,-2.73027 -13.08463,-3.13958 -4.58665,-0.5745 -15.41955,1.25692 -17.54926,1.00652 -20.22231,-2.3777 -18.39832,3.74542 -37.22701,-7.97388 -2.6173,-1.62905 -7.627866,-1.2059 -10.921426,-2.39119 -1.84188,-0.66285 -18.3352,-2.3853 -13.88758,-6.73812 12.25615,-11.99489 27.004936,6.69832 38.708006,9.26034 10.95626,2.39854 14.09228,4.88197 32.01944,1.35937 7.51977,-1.47759 14.15979,3.42996 21.18431,3.37547 4.97616,-0.0386 11.47721,-3.6857 16.24146,-2.55302 17.81081,4.23444 30.3182,-2.74607 38.368,0.15089 9.77556,3.51804 27.23269,6.30028 40.49461,3.6992 14.87911,-2.91827 7.48393,-3.74875 30.78139,-7.48646 z" id="path3757-1-9" inkscape:connector-curvature="0" sodipodi:nodetypes="cssssssssssssssssssc" transform="matrix(1.1256315,0,0,1.1525758,-24.806063,-30.372206)"/>
  <path style="fill:#7bb02a;fill-opacity:1;fill-rule:nonzero;stroke:none" d="m 153.47575,169.16867 c -12.64002,0.44993 -36.88702,-5.72005 -33.73795,-4.96132 4.11572,0.99162 8.53583,2.79087 13.27983,4.41006 17.48923,5.96929 36.88321,0.0484 52.93986,8.26887 6.57692,3.36718 18.11813,1.28627 24.40618,1.28627 7.50975,0 7.3185,0.22395 22.79106,-4.77757 7.00049,-2.26291 17.64371,-0.39672 24.76508,-1.47002 12.54449,-1.89065 17.63362,-3.92467 27.99533,-2.75629 3.39518,0.38284 11.65175,-0.9055 12.02361,-1.28628 1.59763,-1.63586 6.55407,-3.91744 8.79341,-4.41006 21.26321,-4.67758 33.36346,7.40521 52.04257,-9.55515 12.20553,-11.08245 22.62807,-6.16875 26.05272,-7.92207 1.91519,-0.98051 5.5616,-2.67089 1.79392,-8.64563 -10.86928,-17.23629 -31.03161,14.59222 -43.27996,18.77273 -11.46675,3.91375 -29.59318,-3.2245 -40.19839,2.20504 -4.78928,2.45196 -8.4555,4.35599 -12.92093,5.8801 -5.04346,1.72139 -12.96379,-1.8133 -17.9457,0 -18.62454,6.77888 -33.98167,0.49227 -42.3519,4.77756 -10.16469,5.20401 -24.21559,7.56625 -38.36051,5.46491 -15.8698,-2.35759 -18.41438,-6.01616 -38.08823,-5.28115 z" id="path3757" inkscape:connector-curvature="0" sodipodi:nodetypes="cssssssssssssssssssc"/>
  <path style="fill:#7bb02a;fill-opacity:1;fill-rule:nonzero;stroke:none" d="m 146.98998,196.55865 c -13.37381,1.53444 -43.76524,-3.44915 -40.35789,-2.96369 4.45323,0.63448 9.29946,2.0476 14.47377,3.25347 19.07559,4.44549 41.29581,1.65666 59.04627,8.46848 7.27073,2.79019 26.33608,-5.42012 33.00856,-5.96042 7.96888,-0.64527 13.16905,-5.91825 20.36084,-5.98401 7.75151,-0.0709 24.96902,-2.27885 32.4328,-3.96026 13.14763,-2.96185 9.39881,1.92412 22.28982,-0.74198 3.56497,-0.73731 10.50617,-5.09424 14.08291,-6.17367 5.0201,-1.51502 17.38281,-1.15923 19.71638,-1.84253 22.15795,-6.4881 21.09729,1.38778 40.21939,-16.38195 2.65808,-2.4701 8.30895,-2.82862 11.79108,-4.87003 1.94734,-1.1416 20.0538,-6.16581 14.4065,-10.75502 -15.56207,-12.64629 -29.03058,13.01143 -41.66559,18.22963 -11.82874,4.88521 -14.92925,8.50068 -35.46613,7.30506 -8.61445,-0.50154 -15.23498,6.72093 -23.07162,7.88834 -5.55147,0.82698 -13.37507,-2.53054 -18.50447,-0.29557 -19.1759,8.35529 -34.22198,1.94036 -42.73269,6.92975 -10.33528,6.05904 -29.34756,12.56031 -44.53929,11.68177 -17.04427,-0.98567 -8.93503,-3.31019 -35.49064,-3.82737 z" id="path3757-1" inkscape:connector-curvature="0" sodipodi:nodetypes="cssssssssssssssssssc"/>
  <path style="fill:#7bb02a;fill-opacity:1;fill-rule:nonzero;stroke:none" d="m 155.80889,112.74517 c -12.45363,0.487 -44.12714,2.61448 -40.93851,2.45465 23.11335,-1.15854 41.55969,-5.34096 46.43366,-5.76576 9.24592,-0.80583 18.28035,3.21986 27.94101,0.5221 6.78119,-1.89367 20.85918,-2.27535 27.05924,-2.66317 7.40466,-0.46317 12.52383,2.35435 19.17587,1.60417 7.16973,-0.80851 23.47018,0.79291 30.46927,1.05163 12.32904,0.45575 8.57442,-2.27284 20.64873,-1.97899 3.33913,0.0813 10.0135,2.11792 13.38375,2.41788 4.73028,0.421 16.13738,-1.17 18.33499,-0.98778 20.86696,1.73028 19.42032,-3.21703 38.14867,6.10185 2.60334,1.29538 7.84825,0.90325 11.18799,1.83218 1.8677,0.51947 18.90278,1.7549 13.95402,5.32802 -13.63714,9.84632 -27.60616,-5.16747 -39.5949,-7.13053 -11.2237,-1.8378 -14.30382,-3.8209 -33.21746,-0.78918 -7.93357,1.27171 -14.48111,-2.64283 -21.79445,-2.52995 -5.18076,0.08 -12.2142,3.10091 -17.08815,2.22902 -18.22085,-3.25946 -32.00363,0.44431 -40.16628,-1.82608 -9.91263,-2.75712 -24.31942,-1.98395 -38.31075,0.2549 -15.69748,2.51188 -11.10915,-3.38364 -35.6267,-0.12496 z" id="path3757-1-7" inkscape:connector-curvature="0" sodipodi:nodetypes="cssssssssssssssssssc"/>
  <path style="fill:#7bb02a;fill-opacity:1;fill-rule:nonzero;stroke:none" d="m 158.49136,134.34323 c -12.45363,-0.52361 -42.8588,5.1722 -39.66955,4.86366 19.56027,-1.89227 32.5854,-3.71941 37.29719,-2.27272 17.37045,5.33333 23.35617,-2.53779 39.36159,4.27452 6.55597,2.79038 9.27469,-0.15331 25.28271,2.12874 7.34972,1.04776 11.25487,-1.75177 17.90691,-0.94518 7.16973,0.86929 26.00809,3.46162 33.00717,3.18346 12.32904,-0.49003 7.30546,-3.53318 19.37978,-3.84912 3.33913,-0.0874 15.34311,-4.35611 18.71335,-4.67862 4.73029,-0.45265 13.59947,2.81717 15.79709,2.62125 20.86696,-1.86038 15.10587,7.87664 33.83422,-2.14293 2.60334,-1.39278 7.84825,-0.97116 11.18799,-1.96994 1.86771,-0.55852 18.90279,-1.88686 13.95403,-5.72862 -13.63714,-10.58667 -24.30688,2.43762 -36.29562,4.54828 -11.22371,1.97599 -10.49696,0.21021 -29.4106,-3.04947 -7.93357,-1.36733 -20.31829,2.32182 -27.63163,2.20044 -5.18077,-0.086 -14.49833,6.54083 -19.37228,7.47828 -18.22085,3.50454 -16.94328,-2.18932 -25.44641,-2.09091 -9.15126,0.10592 -32.44072,1.04873 -46.43205,-1.35846 -15.69749,-2.70075 -16.94634,0.29105 -41.46389,-3.21266 z" id="path3757-1-7-4" inkscape:connector-curvature="0" sodipodi:nodetypes="cssssssssssssssssssc"/>
  <path style="fill:#7bb02a;fill-opacity:1;fill-rule:nonzero;stroke:none" d="m 332.66107,98.434972 c 7.09445,4.340568 23.37845,0.417682 29.07206,6.247598 4.45093,4.55747 14.94331,-1.60747 31.02541,13.31284 21.16743,20.34086 -9.22201,50.67401 -20.71081,53.37254 -4.35728,1.8756 -16.31053,7.48662 -30.70058,15.66199 5.32184,-7.14631 18.86532,-10.77126 22.49966,-14.49259 5.58852,-5.7223 16.9985,-6.95844 21.3952,-16.40399 2.66282,-5.72063 -0.69699,-10.08508 -3.76859,-13.23021 -2.3118,-2.36713 4.44072,-6.5412 -0.55113,-11.26274 -1.87185,-1.7705 -5.40655,-2.77536 -6.98608,-6.01003 -2.29513,-4.70012 6.36053,-7.45244 1.43566,-12.49519 -4.79975,-4.91465 -14.23065,-3.91363 -19.02246,-8.82013 -5.07499,-5.196472 -18.25958,-0.32137 -23.68834,-5.880088 z" id="path3813" inkscape:connector-curvature="0" sodipodi:nodetypes="cscccsssssssc"/>
  <path style="opacity:0.26459141;fill:#224702;fill-opacity:1;fill-rule:nonzero;stroke:none;filter:url(#filter3925)" d="m 288.31795,162.20688 c 11.23256,-0.23744 32.47921,-6.32782 29.71798,-5.57096 -3.60881,0.98917 -7.45316,2.63983 -11.59252,4.16155 -15.2602,5.60992 -32.71813,1.78346 -46.61127,9.12931 -5.69073,3.00892 -16.01818,1.88763 -21.5965,2.18508 -6.66212,0.35525 -6.48289,0.52562 -20.42273,-2.74971 -6.30703,-1.48189 -15.66922,0.51677 -22.03265,-0.006 -11.20937,-0.92139 -15.81098,-2.31032 -24.95325,-0.88407 -2.99561,0.46734 -10.3753,-0.17432 -10.72146,-0.4618 -1.48719,-1.23509 -5.98167,-2.82864 -7.9893,-3.1174 -19.06307,-2.74186 -28.72894,6.84275 -46.57674,-5.19381 -2.48094,-1.67315 -9.398916,0.13823 -12.511936,-1.10454 -1.74091,-0.69499 -17.28654,-2.71496 -13.14436,-6.97649 11.41444,-11.74336 28.397386,6.34761 39.441856,9.11766 10.33971,2.59328 26.11524,-3.98337 35.75541,-0.13487 4.35346,1.73797 7.68722,3.09007 11.71374,4.09996 4.54775,1.1406 11.42311,-2.06607 15.92018,-0.8489 16.81199,4.55026 30.16718,-1.21306 37.77574,1.82439 9.23972,3.68864 21.80562,4.91661 34.26423,2.56389 13.97784,-2.6396 16.07892,-5.69123 33.56358,-6.033 z" id="path3757-0" inkscape:connector-curvature="0" sodipodi:nodetypes="cssssssssssssssssssc" transform="matrix(1.1256315,0,0,1.1525758,-24.806063,-30.372206)"/>
  <path style="opacity:0.1906615;fill:#224702;fill-opacity:1;fill-rule:nonzero;stroke:none;filter:url(#filter3877)" d="m 277.59836,148.00279 c 11.06913,-0.23637 38.0012,4.78144 35.17239,4.48688 -17.34954,-1.80655 -28.89501,-3.46445 -33.09962,-2.37334 -15.50065,4.02238 -20.71272,-2.38037 -35.02056,2.84861 -5.86063,2.14185 -8.23636,-0.25978 -22.48617,1.33485 -6.54248,0.73215 -9.97401,-1.57133 -15.89354,-1.02235 -6.38022,0.59163 -23.14826,2.39344 -29.36161,2.06706 -10.94497,-0.57496 -6.44214,-2.94218 -17.16316,-3.37373 -2.96488,-0.11929 -13.57077,-3.72089 -16.56015,-4.02934 -4.19573,-0.43289 -12.11749,2.05945 -14.06696,1.86986 -18.51067,-1.80022 -13.52298,6.0961 -30.025296,-2.21815 -2.29391,-1.15573 -6.95841,-0.89485 -9.91169,-1.74536 -1.65158,-0.47561 -16.7656,-1.79249 -12.31861,-4.8015 12.25446,-8.29183 21.55855,2.31405 32.179646,4.18411 9.94333,1.75074 9.32131,0.32345 26.16511,-2.01261 7.06534,-0.97989 18.01715,2.16232 24.51497,2.17281 4.60306,0.007 12.79127,5.46111 17.10815,6.28504 16.13831,3.0802 15.07934,-1.50644 22.63109,-1.30208 8.12735,0.21996 28.80207,1.31978 41.26218,-0.40498 13.97955,-1.93509 15.04901,0.48344 36.87383,-1.96574 z" id="path3757-1-7-4-8" inkscape:connector-curvature="0" sodipodi:nodetypes="cssssssssssssssssssc" transform="matrix(1.1256315,0,0,1.1525758,-24.806063,-30.372206)"/>
  <path style="fill:#295309;fill-opacity:1;fill-rule:nonzero;stroke:none" d="m 185.14731,94.116778 c -27.30062,-3.140539 -65.65937,-14.527717 -93.856095,-0.09186 -9.537416,4.882865 -16.073632,2.309428 -23.867797,10.290162 -2.222627,2.27583 -2.987753,8.20436 -5.024808,10.29017 -1.319015,1.3506 -2.858102,3.29402 -3.948052,4.41006 -1.616226,1.6549 -6.819368,-3.0754 -6.819368,-0.73501 0,2.82168 7.722024,1.82652 5.742623,5.88009 -1.229257,2.51737 -3.484347,0.2602 -4.665889,1.47003 -0.899267,0.92079 3.784171,2.94003 2.51241,2.94003 -1.531433,0 -15.512644,-4.49129 -15.074402,-4.04255 4.783259,4.89775 10.659596,5.40217 15.433309,10.29015 2.945924,3.01644 1.82914,17.34357 3.948063,21.68283 6.37516,13.05554 16.431924,28.15254 28.216127,34.18567 11.765625,6.02364 16.786659,9.20308 30.238969,13.79453 5.63472,1.92318 22.19522,4.91633 28.14089,6.94567 2.72634,0.93053 12.16878,2.18475 24.60276,1.40696 -21.14345,-7.4554 -33.76358,-6.78362 -36.11043,-7.98513 -5.12431,-2.62349 -23.9587,-8.18698 -29.68167,-9.65197 -10.273146,-2.62977 -11.956742,-13.26619 -21.70465,-18.25682 -7.382275,-3.77949 -12.572562,-9.43615 -12.572562,-18.89501 0,-0.74515 9.318777,5.0712 10.046509,5.0712 5.498001,0 14.654908,11.73951 21.175943,13.96522 10.57742,3.61021 21.26772,6.76893 31.58445,10.29015 6.24846,2.13268 16.0233,-0.24919 22.25269,2.94005 0.18748,0.096 2.5124,-0.0721 2.5124,0 0,0.86622 -1.66643,-0.36751 -2.5124,-0.36751 -4.08666,0 -10.23158,-1.65462 -13.99766,-2.94003 -14.43486,-4.92681 -32.44829,-9.70466 -41.63406,-19.1103 -1.465388,-1.50047 -2.335726,-5.69919 -3.948058,-7.35011 -0.424757,-0.43494 -14.822818,-13.05091 -13.722727,-14.17733 2.787986,-2.85472 14.943046,8.70168 25.566905,12.3398 13.9442,4.77517 42.44731,0.92526 49.3846,2.78781 12.03062,3.23003 41.42071,-3.03291 41.42071,-0.58278 0,0.0647 -5.22472,-0.62895 -5.74263,-0.73501 -5.89883,-1.20801 -13.81358,1.86534 -19.38137,-0.3675 -17.04568,-6.83577 -44.97496,-6.17497 -69.78861,-15.65052 -9.675002,-3.69458 -25.133329,-9.90227 -22.811275,-12.27991 0.447911,-0.45863 3.967446,1.60576 4.30697,1.83753 1.780423,1.21534 6.761034,0.90383 8.972855,1.47002 9.78858,2.50572 57.39718,2.57254 69.27046,2.57254 6.01884,0 53.47823,0.66367 53.47823,0.735 0,2.67022 -50.01039,-5.26774 -55.99063,-5.88008 -17.7219,-1.81462 -37.35915,-0.74323 -54.55498,-5.14509 -4.94989,-1.26709 -9.444326,-3.67504 -14.715478,-3.67504 -3.616587,0 -14.715478,-0.1656 -14.715478,-4.77758 0,-17.11438 59.988656,-15.70117 98.625546,-10.48315 8.8945,1.56095 16.11562,-0.6249 21.37871,-0.0261 -24.3655,-1.85321 -40.62938,-5.19182 -61.86015,-7.13102 -8.82944,3.01361 -39.292113,-2.397991 -44.864281,3.30756 -1.913495,1.9593 -22.611604,9.23297 -22.611604,8.45262 0,-6.30348 10.117098,-7.20091 14.715494,-9.55514 13.295764,-6.807021 38.920901,-14.528403 63.527821,-11.760181 10.97372,1.234512 5.47048,0.214874 39.12167,2.29691 z" id="path3955" inkscape:connector-curvature="0" sodipodi:nodetypes="csssssssssssssscssssssscssssssssssssscssssssscccssssc"/>
  <path style="fill:#6c9d22;fill-opacity:1;fill-rule:nonzero;stroke:none" d="m 10.714956,98.802471 c 7.432605,5.766909 20.135009,13.559709 31.296838,15.464549" id="path3957" inkscape:connector-curvature="0" sodipodi:nodetypes="cc"/>
  <path style="fill:#f1d939;fill-opacity:1;fill-rule:nonzero;stroke:none" d="m 405.00203,127.92723 c -1.60482,8.65833 8.01917,5.38654 12.74152,7.28242 11.13177,4.46903 9.31672,9.92638 24.95993,11.03764 -10.5035,-5.1385 -25.38083,-30.39213 -37.70145,-18.32006 z" id="path3959-51" inkscape:connector-curvature="0" sodipodi:nodetypes="cscc"/>
  <path style="fill:#ffe328;fill-opacity:1;fill-rule:nonzero;stroke:none" d="m 397.19725,127.60076 c 6.37882,11.67636 12.34202,2.92029 18.45017,3.03293 14.39846,0.26553 17.67291,8.01221 33.20896,1.87616 -14.42349,-1.41122 -51.18996,-26.04624 -51.65913,-4.90909 z" id="path3959-7" inkscape:connector-curvature="0" sodipodi:nodetypes="cscc"/>
  <path style="fill:#ead024;fill-opacity:1;fill-rule:nonzero;stroke:none" d="m 403.17812,132.69596 c 7.4e-4,-12.95094 9.28038,-8.78808 14.50189,-12.03515 12.30844,-7.65422 11.48202,-15.75208 27.79238,-18.69908 -11.78964,8.61472 -31.91892,47.97405 -42.29427,30.73423 z" id="path3959-5" inkscape:connector-curvature="0" sodipodi:nodetypes="cscc"/>
  <path style="fill:#ffe328;fill-opacity:1;fill-rule:nonzero;stroke:none" d="m 397.62455,130.77547 c -2.84527,-12.619 7.1112,-10.7009 11.48526,-15.06774 10.31078,-10.29377 7.72602,-17.993567 22.97052,-24.622872 -9.59421,11.110122 -20.55801,54.097862 -34.45578,39.690612 z" id="path3959" inkscape:connector-curvature="0" sodipodi:nodetypes="cscc"/>
  <path style="fill:#ffe328;fill-opacity:1;fill-rule:nonzero;stroke:none" d="m 398.16787,131.45369 c -2.46551,7.73264 6.16209,6.55728 9.95235,9.23318 8.93461,6.30779 6.69484,11.02606 19.9047,15.08835 -8.3137,-6.80804 -17.81418,-33.14997 -29.85705,-24.32153 z" id="path3959-4" inkscape:connector-curvature="0" sodipodi:nodetypes="cscc"/>
  <path style="fill:#d7c33e;fill-opacity:1;fill-rule:nonzero;stroke:none" d="m 396.23276,129.70966 c -0.8599,-8.91939 4.20648,-5.81229 5.83718,-17.41101 2.27623,5.88009 4.19124,12.98891 -1.97138,16.51342 6.40198,6.09172 5.64227,8.12178 5.77825,15.9698 -3.87909,-7.915 -10.31611,-6.19151 -9.64405,-15.07221 z" id="path4000" inkscape:connector-curvature="0" sodipodi:nodetypes="ccccc"/>
  <path sodipodi:type="arc" style="opacity:0.52529147;fill:#77b21c;fill-opacity:1;fill-rule:nonzero;stroke:none;filter:url(#filter4024-76)" id="path4002-6" sodipodi:cx="-348.19067" sodipodi:cy="164.05138" sodipodi:rx="6.0582628" sodipodi:ry="4.9422669" d="m -342.13241,164.05138 a 6.0582628,4.9422669 0 1 1 -12.11653,0 6.0582628,4.9422669 0 1 1 12.11653,0 z" transform="matrix(0.91020996,0,0,0.96774283,428.5421,-47.468834)"/>
  <path sodipodi:type="arc" style="opacity:0.62256805;fill:#1c4500;fill-opacity:1;fill-rule:nonzero;stroke:none;filter:url(#filter4333)" id="path4028-1" sodipodi:cx="-502.03867" sodipodi:cy="66.959747" sodipodi:rx="3.0291314" sodipodi:ry="2.2319915" d="m -499.00953,66.959747 a 3.0291314,2.2319915 0 1 1 -6.05827,0 3.0291314,2.2319915 0 1 1 6.05827,0 z" transform="matrix(1.101833,0,0,1.2442407,664.7783,27.822376)"/>
  <path sodipodi:type="arc" style="opacity:0.8093385;fill:#7bb02a;fill-opacity:1;fill-rule:nonzero;stroke:none;filter:url(#filter4076-91)" id="path4066-54" sodipodi:cx="-501.48068" sodipodi:cy="66.640892" sodipodi:rx="1.3551377" sodipodi:ry="0.79713982" d="m -500.12554,66.640892 a 1.3551377,0.79713982 0 1 1 -2.71028,0 1.3551377,0.79713982 0 1 1 2.71028,0 z" transform="matrix(0.91020996,0,0,1.2319047,567.8505,29.118348)"/>
  <path sodipodi:type="arc" style="opacity:0.52529147;fill:#77b21c;fill-opacity:1;fill-rule:nonzero;stroke:none;filter:url(#filter4024-76-3)" id="path4002-6-2" sodipodi:cx="-348.19067" sodipodi:cy="164.05138" sodipodi:rx="6.0582628" sodipodi:ry="4.9422669" d="m -342.13241,164.05138 a 6.0582628,4.9422669 0 1 1 -12.11653,0 6.0582628,4.9422669 0 1 1 12.11653,0 z" transform="matrix(0.80268568,0,0,0.79348065,453.90733,-9.0375124)"/>
  <path sodipodi:type="arc" style="opacity:0.62256805;fill:#1c4500;fill-opacity:1;fill-rule:nonzero;stroke:none;filter:url(#filter4333-9)" id="path4028-1-6" sodipodi:cx="-502.03867" sodipodi:cy="66.959747" sodipodi:rx="3.0291314" sodipodi:ry="2.2319915" d="m -499.00953,66.959747 a 3.0291314,2.2319915 0 1 1 -6.05827,0 3.0291314,2.2319915 0 1 1 6.05827,0 z" transform="matrix(0.97167209,0,0,1.0201893,662.23663,52.695965)"/>
  <path sodipodi:type="arc" style="opacity:0.8093385;fill:#7bb02a;fill-opacity:1;fill-rule:nonzero;stroke:none;filter:url(#filter4076-91-2)" id="path4066-54-0" sodipodi:cx="-501.48068" sodipodi:cy="66.640892" sodipodi:rx="1.3551377" sodipodi:ry="0.79713982" d="m -500.12554,66.640892 a 1.3551377,0.79713982 0 1 1 -2.71028,0 1.3551377,0.79713982 0 1 1 2.71028,0 z" transform="matrix(0.80268568,0,0,1.0100747,576.75904,53.758559)"/>
  <path sodipodi:type="arc" style="opacity:0.52529147;fill:#77b21c;fill-opacity:1;fill-rule:nonzero;stroke:none;filter:url(#filter4024-76-4)" id="path4002-6-20" sodipodi:cx="-348.19067" sodipodi:cy="164.05138" sodipodi:rx="6.0582628" sodipodi:ry="4.9422669" d="m -342.13241,164.05138 a 6.0582628,4.9422669 0 1 1 -12.11653,0 6.0582628,4.9422669 0 1 1 12.11653,0 z" transform="matrix(0.6567728,0,0,0.72129889,361.78688,57.648571)"/>
  <path sodipodi:type="arc" style="opacity:0.62256805;fill:#1c4500;fill-opacity:1;fill-rule:nonzero;stroke:none;filter:url(#filter4333-5)" id="path4028-1-0" sodipodi:cx="-502.03867" sodipodi:cy="66.959747" sodipodi:rx="3.0291314" sodipodi:ry="2.2319915" d="m -499.00953,66.959747 a 3.0291314,2.2319915 0 1 1 -6.05827,0 3.0291314,2.2319915 0 1 1 6.05827,0 z" transform="matrix(0.79504072,0,0,0.92738425,532.24591,113.76625)"/>
  <path sodipodi:type="arc" style="opacity:0.8093385;fill:#7bb02a;fill-opacity:1;fill-rule:nonzero;stroke:none;filter:url(#filter4076-91-1)" id="path4066-54-1" sodipodi:cx="-501.48068" sodipodi:cy="66.640892" sodipodi:rx="1.3551377" sodipodi:ry="0.79713982" d="m -500.12554,66.640892 a 1.3551377,0.79713982 0 1 1 -2.71028,0 1.3551377,0.79713982 0 1 1 2.71028,0 z" transform="matrix(0.6567728,0,0,0.9181897,462.30651,114.73219)"/>
  <path sodipodi:type="arc" style="opacity:0.52529147;fill:#77b21c;fill-opacity:1;fill-rule:nonzero;stroke:none;filter:url(#filter4024-76-7)" id="path4002-6-7" sodipodi:cx="-348.19067" sodipodi:cy="164.05138" sodipodi:rx="6.0582628" sodipodi:ry="4.9422669" d="m -342.13241,164.05138 a 6.0582628,4.9422669 0 1 1 -12.11653,0 6.0582628,4.9422669 0 1 1 12.11653,0 z" transform="matrix(0.68211652,0,0,0.69049341,422.11553,75.013693)"/>
  <path sodipodi:type="arc" style="opacity:0.62256805;fill:#1c4500;fill-opacity:1;fill-rule:nonzero;stroke:none;filter:url(#filter4333-7)" id="path4028-1-3" sodipodi:cx="-502.03867" sodipodi:cy="66.959747" sodipodi:rx="3.0291314" sodipodi:ry="2.2319915" d="m -499.00953,66.959747 a 3.0291314,2.2319915 0 1 1 -6.05827,0 3.0291314,2.2319915 0 1 1 6.05827,0 z" transform="matrix(0.82571995,0,0,0.88777719,599.15228,128.73468)"/>
  <path sodipodi:type="arc" style="opacity:0.8093385;fill:#7bb02a;fill-opacity:1;fill-rule:nonzero;stroke:none;filter:url(#filter4076-91-4)" id="path4066-54-3" sodipodi:cx="-501.48068" sodipodi:cy="66.640892" sodipodi:rx="1.3551377" sodipodi:ry="0.79713982" d="m -500.12554,66.640892 a 1.3551377,0.79713982 0 1 1 -2.71028,0 1.3551377,0.79713982 0 1 1 2.71028,0 z" transform="matrix(0.68211652,0,0,0.87897533,526.51404,129.65936)"/>
  <path sodipodi:type="arc" style="opacity:0.52529147;fill:#77b21c;fill-opacity:1;fill-rule:nonzero;stroke:none;filter:url(#filter4024-76-2)" id="path4002-6-6" sodipodi:cx="-348.19067" sodipodi:cy="164.05138" sodipodi:rx="6.0582628" sodipodi:ry="4.9422669" d="m -342.13241,164.05138 a 6.0582628,4.9422669 0 1 1 -12.11653,0 6.0582628,4.9422669 0 1 1 12.11653,0 z" transform="matrix(0.63142908,0,0,0.72129889,432.46195,31.923175)"/>
  <path sodipodi:type="arc" style="opacity:0.62256805;fill:#1c4500;fill-opacity:1;fill-rule:nonzero;stroke:none;filter:url(#filter4333-98)" id="path4028-1-03" sodipodi:cx="-502.03867" sodipodi:cy="66.959747" sodipodi:rx="3.0291314" sodipodi:ry="2.2319915" d="m -499.00953,66.959747 a 3.0291314,2.2319915 0 1 1 -6.05827,0 3.0291314,2.2319915 0 1 1 6.05827,0 z" transform="matrix(0.76436149,0,0,0.92738425,596.34327,88.040848)"/>
  <path sodipodi:type="arc" style="opacity:0.8093385;fill:#7bb02a;fill-opacity:1;fill-rule:nonzero;stroke:none;filter:url(#filter4076-91-5)" id="path4066-54-8" sodipodi:cx="-501.48068" sodipodi:cy="66.640892" sodipodi:rx="1.3551377" sodipodi:ry="0.79713982" d="m -500.12554,66.640892 a 1.3551377,0.79713982 0 1 1 -2.71028,0 1.3551377,0.79713982 0 1 1 2.71028,0 z" transform="matrix(0.63142908,0,0,0.9181897,529.1027,89.006787)"/>
  <path sodipodi:type="arc" style="opacity:0.52529147;fill:#77b21c;fill-opacity:1;fill-rule:nonzero;stroke:none;filter:url(#filter4024-76-0)" id="path4002-6-4" sodipodi:cx="-348.19067" sodipodi:cy="164.05138" sodipodi:rx="6.0582628" sodipodi:ry="4.9422669" d="m -342.13241,164.05138 a 6.0582628,4.9422669 0 1 1 -12.11653,0 6.0582628,4.9422669 0 1 1 12.11653,0 z" transform="matrix(0.65931997,0,0,0.70634957,563.36931,7.3353934)"/>
  <path sodipodi:type="arc" style="opacity:0.62256805;fill:#1c4500;fill-opacity:1;fill-rule:nonzero;stroke:none;filter:url(#filter4333-2)" id="path4028-1-7" sodipodi:cx="-502.03867" sodipodi:cy="66.959747" sodipodi:rx="3.0291314" sodipodi:ry="2.2319915" d="m -499.00953,66.959747 a 3.0291314,2.2319915 0 1 1 -6.05827,0 3.0291314,2.2319915 0 1 1 6.05827,0 z" transform="matrix(0.79812413,0,0,0.90816367,734.48943,62.289982)"/>
  <path sodipodi:type="arc" style="opacity:0.8093385;fill:#7bb02a;fill-opacity:1;fill-rule:nonzero;stroke:none;filter:url(#filter4076-91-0)" id="path4066-54-83" sodipodi:cx="-501.48068" sodipodi:cy="66.640892" sodipodi:rx="1.3551377" sodipodi:ry="0.79713982" d="m -500.12554,66.640892 a 1.3551377,0.79713982 0 1 1 -2.71028,0 1.3551377,0.79713982 0 1 1 2.71028,0 z" transform="matrix(0.65931997,0,0,0.89915969,664.27878,63.235901)"/>
  <path sodipodi:type="arc" style="opacity:0.52529147;fill:#77b21c;fill-opacity:1;fill-rule:nonzero;stroke:none;filter:url(#filter4024-76-40)" id="path4002-6-8" sodipodi:cx="-348.19067" sodipodi:cy="164.05138" sodipodi:rx="6.0582628" sodipodi:ry="4.9422669" d="m -342.13241,164.05138 a 6.0582628,4.9422669 0 1 1 -12.11653,0 6.0582628,4.9422669 0 1 1 12.11653,0 z" transform="matrix(0.65931997,0,0,0.48852185,539.0054,107.25717)"/>
  <path sodipodi:type="arc" style="opacity:0.62256805;fill:#1c4500;fill-opacity:1;fill-rule:nonzero;stroke:none;filter:url(#filter4333-0)" id="path4028-1-9" sodipodi:cx="-502.03867" sodipodi:cy="66.959747" sodipodi:rx="3.0291314" sodipodi:ry="2.2319915" d="m -499.00953,66.959747 a 3.0291314,2.2319915 0 1 1 -6.05827,0 3.0291314,2.2319915 0 1 1 6.05827,0 z" transform="matrix(0.79812413,0,0,0.62809948,710.12551,145.26459)"/>
  <path sodipodi:type="arc" style="opacity:0.8093385;fill:#7bb02a;fill-opacity:1;fill-rule:nonzero;stroke:none;filter:url(#filter4076-91-51)" id="path4066-54-84" sodipodi:cx="-501.48068" sodipodi:cy="66.640892" sodipodi:rx="1.3551377" sodipodi:ry="0.79713982" d="m -500.12554,66.640892 a 1.3551377,0.79713982 0 1 1 -2.71028,0 1.3551377,0.79713982 0 1 1 2.71028,0 z" transform="matrix(0.65931997,0,0,0.62187219,639.91486,145.91879)"/>
  <path sodipodi:type="arc" style="opacity:0.52529147;fill:#77b21c;fill-opacity:1;fill-rule:nonzero;stroke:none;filter:url(#filter4024-76-8)" id="path4002-6-3" sodipodi:cx="-348.19067" sodipodi:cy="164.05138" sodipodi:rx="6.0582628" sodipodi:ry="4.9422669" d="m -342.13241,164.05138 a 6.0582628,4.9422669 0 1 1 -12.11653,0 6.0582628,4.9422669 0 1 1 12.11653,0 z" transform="matrix(0.69516139,0,0,0.79348065,529.91283,25.264762)"/>
  <path sodipodi:type="arc" style="opacity:0.62256805;fill:#1c4500;fill-opacity:1;fill-rule:nonzero;stroke:none;filter:url(#filter4333-988)" id="path4028-1-8" sodipodi:cx="-502.03867" sodipodi:cy="66.959747" sodipodi:rx="3.0291314" sodipodi:ry="2.2319915" d="m -499.00953,66.959747 a 3.0291314,2.2319915 0 1 1 -6.05827,0 3.0291314,2.2319915 0 1 1 6.05827,0 z" transform="matrix(0.84151112,0,0,1.0201893,710.33524,86.998239)"/>
  <path sodipodi:type="arc" style="opacity:0.8093385;fill:#7bb02a;fill-opacity:1;fill-rule:nonzero;stroke:none;filter:url(#filter4076-91-14)" id="path4066-54-37" sodipodi:cx="-501.48068" sodipodi:cy="66.640892" sodipodi:rx="1.3551377" sodipodi:ry="0.79713982" d="m -500.12554,66.640892 a 1.3551377,0.79713982 0 1 1 -2.71028,0 1.3551377,0.79713982 0 1 1 2.71028,0 z" transform="matrix(0.69516139,0,0,1.0100747,636.30787,88.060833)"/>
  <path sodipodi:type="arc" style="opacity:0.52529147;fill:#77b21c;fill-opacity:1;fill-rule:nonzero;stroke:none;filter:url(#filter4024-76-9)" id="path4002-6-1" sodipodi:cx="-348.19067" sodipodi:cy="164.05138" sodipodi:rx="6.0582628" sodipodi:ry="4.9422669" d="m -342.13241,164.05138 a 6.0582628,4.9422669 0 1 1 -12.11653,0 6.0582628,4.9422669 0 1 1 12.11653,0 z" transform="matrix(0.58763712,0,0,0.66278402,481.0533,19.93955)"/>
  <path sodipodi:type="arc" style="opacity:0.62256805;fill:#1c4500;fill-opacity:1;fill-rule:nonzero;stroke:none;filter:url(#filter4333-3)" id="path4028-1-09" sodipodi:cx="-502.03867" sodipodi:cy="66.959747" sodipodi:rx="3.0291314" sodipodi:ry="2.2319915" d="m -499.00953,66.959747 a 3.0291314,2.2319915 0 1 1 -6.05827,0 3.0291314,2.2319915 0 1 1 6.05827,0 z" transform="matrix(0.71135016,0,0,0.85215083,633.56884,71.50471)"/>
  <path sodipodi:type="arc" style="opacity:0.8093385;fill:#7bb02a;fill-opacity:1;fill-rule:nonzero;stroke:none;filter:url(#filter4076-91-10)" id="path4066-54-9" sodipodi:cx="-501.48068" sodipodi:cy="66.640892" sodipodi:rx="1.3551377" sodipodi:ry="0.79713982" d="m -500.12554,66.640892 a 1.3551377,0.79713982 0 1 1 -2.71028,0 1.3551377,0.79713982 0 1 1 2.71028,0 z" transform="matrix(0.58763712,0,0,0.84370218,570.99166,72.392297)"/>
  <path sodipodi:type="arc" style="opacity:0.52529147;fill:#77b21c;fill-opacity:1;fill-rule:nonzero;stroke:none;filter:url(#filter4024-76-49)" id="path4002-6-5" sodipodi:cx="-348.19067" sodipodi:cy="164.05138" sodipodi:rx="6.0582628" sodipodi:ry="4.9422669" d="m -342.13241,164.05138 a 6.0582628,4.9422669 0 1 1 -12.11653,0 6.0582628,4.9422669 0 1 1 12.11653,0 z" transform="matrix(0.58763712,0,0,0.70634957,577.49377,45.795511)"/>
  <path sodipodi:type="arc" style="opacity:0.62256805;fill:#1c4500;fill-opacity:1;fill-rule:nonzero;stroke:none;filter:url(#filter4333-34)" id="path4028-1-5" sodipodi:cx="-502.03867" sodipodi:cy="66.959747" sodipodi:rx="3.0291314" sodipodi:ry="2.2319915" d="m -499.00953,66.959747 a 3.0291314,2.2319915 0 1 1 -6.05827,0 3.0291314,2.2319915 0 1 1 6.05827,0 z" transform="matrix(0.71135016,0,0,0.90816367,730.0093,100.7501)"/>
  <path sodipodi:type="arc" style="opacity:0.8093385;fill:#7bb02a;fill-opacity:1;fill-rule:nonzero;stroke:none;filter:url(#filter4076-91-6)" id="path4066-54-33" sodipodi:cx="-501.48068" sodipodi:cy="66.640892" sodipodi:rx="1.3551377" sodipodi:ry="0.79713982" d="m -500.12554,66.640892 a 1.3551377,0.79713982 0 1 1 -2.71028,0 1.3551377,0.79713982 0 1 1 2.71028,0 z" transform="matrix(0.58763712,0,0,0.89915969,667.43212,101.69602)"/>
</svg>